<?xml version="1.0" standalone="no"?>
<!DOCTYPE svg PUBLIC "-//W3C//DTD SVG 20010904//EN"
 "http://www.w3.org/TR/2001/REC-SVG-20010904/DTD/svg10.dtd">
<svg version="1.0" xmlns="http://www.w3.org/2000/svg"
 width="512.000000pt" height="512.000000pt" viewBox="0 0 512.000000 512.000000"
 preserveAspectRatio="xMidYMid meet">
<metadata>
Created by potrace 1.14, written by Peter Selinger 2001-2017
</metadata>
<g transform="translate(0.000000,512.000000) scale(0.100000,-0.100000)"
fill="#000000" stroke="none">
<path d="M1624 3822 c-7 -5 -11 -379 -10 -1264 l0 -1258 308 0 308 0 2 477 3
478 70 -1 69 0 26 -45 c27 -44 78 -138 133 -239 16 -30 38 -68 47 -85 10 -16
32 -57 50 -90 63 -115 93 -170 105 -190 7 -11 27 -47 45 -80 17 -33 53 -97 78
-143 l46 -82 349 0 348 0 -19 28 c-10 15 -32 50 -47 77 -15 28 -99 174 -187
325 -89 151 -186 318 -216 370 -30 52 -69 117 -85 143 -16 27 -26 52 -21 56 5
4 36 18 69 31 233 91 393 269 456 506 28 104 30 268 5 379 -20 89 -67 199
-115 269 -116 168 -324 286 -586 331 -54 10 -1217 16 -1231 7z m1132 -526
c132 -45 204 -166 191 -324 -7 -85 -33 -147 -85 -196 -76 -74 -104 -80 -384
-84 l-248 -4 0 315 0 314 238 -2 c195 -1 246 -5 288 -19z"/>
</g>
</svg>
